# File created by Blade
# Date/Time:  Thu Jan 22 19:13:14 2015
# Frame Rate: 120.000 fps
#------------------------------------------------------
:FULLY-SPECIFIED
:DEGREES
1375
root 2.999047 30.574769 -2.905621 16.707984 -29.394726 1.279352
RightUpLeg -43.834024 -38.281654 3.276214
RightLeg 22.163483 -0.000000 -0.000000
RightFoot -5.160436 -7.029308 5.243192
RightToeBase -1.291516 -0.000000 0.000000
LeftUpLeg -4.607402 20.862996 18.048915
LeftLeg 8.929479 -0.000000 -0.000000
LeftFoot -16.578028 3.081008 -34.627704
LeftToeBase 7.206619 -0.000000 -0.000000
Spine -8.610372 3.815748 -0.798466
RightShoulder -13.491705 -9.229276 -27.029796
RightArm 28.478134 36.602710 57.483434
RightForeArm 21.337589 -0.000000 28.921896
RightHand 17.266732 0.000000 2.397501
RightHandThumb1 -24.326973 -0.000000 -32.862282
LeftShoulder -23.975259 8.492896 27.767821
LeftArm 6.041453 -42.022423 -41.962021
LeftForeArm 1.870792 -0.000000 6.646731
LeftHand -2.186217 -0.000000 4.513501
LeftHandThumb1 -26.253704 0.000000 33.147579
Head 5.186079 3.378885 -2.987669
1376
root 2.957741 30.550400 -2.931915 16.678215 -29.372729 1.454108
RightUpLeg -44.362155 -38.316049 3.246043
RightLeg 23.035082 -0.000000 -0.000000
RightFoot -5.536714 -7.263955 5.544029
RightToeBase -1.733412 -0.000000 0.000000
LeftUpLeg -4.674184 20.741804 17.988639
LeftLeg 8.919836 -0.000000 -0.000000
LeftFoot -16.520499 3.080244 -34.777159
LeftToeBase 7.193649 -0.000000 -0.000000
Spine -8.643886 3.609991 -0.848938
RightShoulder -13.484210 -9.339340 -27.010608
RightArm 28.508377 36.619775 57.520493
RightForeArm 21.270911 -0.000000 29.107955
RightHand 17.003397 -0.000000 2.830964
RightHandThumb1 -24.326973 -0.000000 -32.862282
LeftShoulder -23.873483 8.415446 27.808127
LeftArm 6.006192 -41.956172 -42.052578
LeftForeArm 1.981718 0.000000 6.745866
LeftHand -2.177883 -0.000000 4.320977
LeftHandThumb1 -26.253704 0.000000 33.147579
Head 5.587177 3.224577 -3.027031
1377
root 2.910548 30.527161 -2.953518 16.620147 -29.309414 1.594439
RightUpLeg -44.848959 -38.449584 3.271022
RightLeg 23.933057 -0.000000 -0.000000
RightFoot -5.858299 -7.483544 5.632522
RightToeBase 0.387803 -0.000000 -0.000000
LeftUpLeg -4.702489 20.711843 17.982339
LeftLeg 8.909415 -0.000000 -0.000000
LeftFoot -16.390903 3.008178 -34.878898
LeftToeBase 7.154428 -0.000000 -0.000000
Spine -8.637308 3.386429 -0.842988
RightShoulder -13.510590 -9.404503 -26.983233
RightArm 28.575010 36.596382 57.534572
RightForeArm 21.235410 -0.000000 29.167325
RightHand 16.959587 -0.000000 2.994610
RightHandThumb1 -24.326973 -0.000000 -32.862282
LeftShoulder -23.807151 8.463076 27.759001
LeftArm 6.145021 -41.899545 -42.225527
LeftForeArm 2.053959 -0.000000 6.802295
LeftHand -2.084347 -0.000000 4.211867
LeftHandThumb1 -26.253704 0.000000 33.147579
Head 5.983714 3.023854 -3.120492
1378
root 2.866381 30.505309 -2.980134 16.598916 -29.217980 1.705565
RightUpLeg -45.398634 -38.595915 3.336996
RightLeg 24.891295 -0.000000 -0.000000
RightFoot -6.028718 -7.225288 5.655923
RightToeBase 0.971005 -0.000000 -0.000000
LeftUpLeg -4.787553 20.760501 17.995312
LeftLeg 8.926242 -0.000000 -0.000000
LeftFoot -16.227355 2.845257 -34.966058
LeftToeBase 7.181240 -0.000000 -0.000000
Spine -8.637864 3.149871 -0.784865
RightShoulder -13.487416 -9.434378 -27.011298
RightArm 28.549240 36.579213 57.495562
RightForeArm 21.208326 -0.000000 29.187005
RightHand 16.955939 -0.000000 3.262078
RightHandThumb1 -24.326973 -0.000000 -32.862282
LeftShoulder -23.813380 8.598021 27.655926
LeftArm 6.470033 -41.890461 -42.535349
LeftForeArm 2.217837 0.000000 6.859996
LeftHand -2.054779 -0.000000 4.139484
LeftHandThumb1 -26.253704 0.000000 33.147579
Head 6.352597 2.811492 -3.235724
1379
root 2.817755 30.483211 -2.997799 16.517987 -29.141172 1.793945
RightUpLeg -45.915868 -38.880085 3.501570
RightLeg 25.806936 -0.000000 -0.000000
RightFoot -6.181667 -6.788310 5.472089
RightToeBase 0.311030 -0.000000 -0.000000
LeftUpLeg -4.744906 20.881795 18.056074
LeftLeg 8.882369 -0.000000 -0.000000
LeftFoot -15.999103 2.639731 -35.012529
LeftToeBase 7.119156 -0.000000 -0.000000
Spine -8.570300 2.947653 -0.679474
RightShoulder -13.449083 -9.226419 -27.137870
RightArm 28.227897 36.404117 57.290276
RightForeArm 21.235994 0.000000 29.230008
RightHand 16.956709 -0.000000 3.445430
RightHandThumb1 -24.326973 -0.000000 -32.862282
LeftShoulder -23.765219 8.644151 27.526790
LeftArm 6.622776 -41.719383 -42.663839
LeftForeArm 2.315579 0.000000 6.910944
LeftHand -2.004934 -0.000000 4.079319
LeftHandThumb1 -26.253704 0.000000 33.147579
Head 6.689603 2.586221 -3.433975
